HIERARCHY
ROOT Hips
{
  OFFSET 53.5923 86.7426 27.3259
  CHANNELS 6 Xposition Yposition Zposition Zrotation Xrotation Yrotation
  JOINT spine
  {
    OFFSET 0 6.84637 0.3937
    CHANNELS 3 Zrotation Xrotation Yrotation
    JOINT spine1
    {
      OFFSET 0 9.49621 0
      CHANNELS 3 Zrotation Xrotation Yrotation
      JOINT spine2
      {
        OFFSET 0 9.09909 0
        CHANNELS 3 Zrotation Xrotation Yrotation
        JOINT Neck
        {
          OFFSET 0 23.3612 1.11378
          CHANNELS 3 Zrotation Xrotation Yrotation
          JOINT Head
          {
            OFFSET 0 7.05802 0
            CHANNELS 3 Zrotation Xrotation Yrotation
            End Site
            {
              OFFSET 0 17.0844 -5.63419
            }
          }
        }
        JOINT RightShoulder
        {
          OFFSET -3.83136 9.82631 -0.533491
          CHANNELS 3 Zrotation Xrotation Yrotation
          JOINT RightArm
          {
            OFFSET 0 12.8881 0
            CHANNELS 3 Zrotation Xrotation Yrotation
            JOINT RightArmRoll
            {
              OFFSET 0 6.50617 0
              CHANNELS 3 Zrotation Xrotation Yrotation
              JOINT RightForeArm
              {
                OFFSET 0 18.9501 0
                CHANNELS 3 Zrotation Xrotation Yrotation
                JOINT RightForeArmRoll
                {
                  OFFSET 0 7.30093 0
                  CHANNELS 3 Zrotation Xrotation Yrotation
                  JOINT RightHand
                  {
                    OFFSET 0 14.6514 0
                    CHANNELS 3 Zrotation Xrotation Yrotation
                    End Site
                    {
                      OFFSET 0 0 0
                    }
                  }
                }
              }
            }
          }
        }
        JOINT LeftShoulder
        {
          OFFSET 3.83136 9.82631 -0.533491
          CHANNELS 3 Zrotation Xrotation Yrotation
          JOINT LeftArm
          {
            OFFSET 0 12.8881 0
            CHANNELS 3 Zrotation Xrotation Yrotation
            JOINT LeftArmRoll
            {
              OFFSET 0 6.50617 0
              CHANNELS 3 Zrotation Xrotation Yrotation
              JOINT LeftForeArm
              {
                OFFSET 0 18.9501 0
                CHANNELS 3 Zrotation Xrotation Yrotation
                JOINT LeftForeArmRoll
                {
                  OFFSET 0 7.30092 0
                  CHANNELS 3 Zrotation Xrotation Yrotation
                  JOINT LeftHand
                  {
                    OFFSET 0 14.6514 0
                    CHANNELS 3 Zrotation Xrotation Yrotation
                    End Site
                    {
                      OFFSET 0 0 0
                    }
                  }
                }
              }
            }
          }
        }
      }
    }
  }
  JOINT RightUpLeg
  {
    OFFSET -6.06837 -1.11278 -0.933477
    CHANNELS 3 Zrotation Xrotation Yrotation
    JOINT RightUpLegRoll
    {
      OFFSET 0 17.1796 0
      CHANNELS 3 Zrotation Xrotation Yrotation
      JOINT RightLeg
      {
        OFFSET 0 -21.2743 0
        CHANNELS 3 Zrotation Xrotation Yrotation
        JOINT RightLegRoll
        {
          OFFSET 0 21.3439 0
          CHANNELS 3 Zrotation Xrotation Yrotation
          JOINT RightFoot
          {
            OFFSET 0 17.7652 0
            CHANNELS 3 Zrotation Xrotation Yrotation
            JOINT RightToeBase
            {
              OFFSET 0 14.8508 0
              CHANNELS 3 Zrotation Xrotation Yrotation
              End Site
              {
                OFFSET 0.0062947 7.19213 -0.829005
              }
            }
          }
        }
      }
    }
  }
  JOINT LeftUpLeg
  {
    OFFSET 6.06837 -1.11278 -0.933477
    CHANNELS 3 Zrotation Xrotation Yrotation
    JOINT LeftUpLegRoll
    {
      OFFSET 0 17.1797 0
      CHANNELS 3 Zrotation Xrotation Yrotation
      JOINT LeftLeg
      {
        OFFSET 0 21.2742 0
        CHANNELS 3 Zrotation Xrotation Yrotation
        JOINT LeftLegRoll
        {
          OFFSET 0 21.5412 0
          CHANNELS 3 Zrotation Xrotation Yrotation
          JOINT LeftFoot
          {
            OFFSET 0 17.5679 0
            CHANNELS 3 Zrotation Xrotation Yrotation
            JOINT LeftToeBase
            {
              OFFSET 0 14.8508 0
              CHANNELS 3 Zrotation Xrotation Yrotation
              End Site
              {
                OFFSET -0.0282102 7.19213 -0.829005
              }
            }
          }
        }
      }
    }
  }
}
MOTION
Frames: 5
Frame Time: 0.00208333
52.8964 63.426 4.62608 8.25769 42.2302 -10.6344 -0.725043 0.989129 0.560774 -1.47872 5.97277 1.23563 -1.49672 7.61736 1.26248 -22.1334 -7.10467 -3.44309 18.6914 13.1059 -6.87169 37.594 -7.34942 -3.66898 129.714 29.8709 -74.1036 -1.2826e-005 5.61989e-006 -5.66249e-006 12.5785 50.7449 3.05621 -6.29621e-006 1.36918e-006 -2.99999 8.02941 -4.95143 0.697588 -57.9863 -8.98577 5.55605 -107.194 39.3521 68.2105 3.30716e-006 4.69622e-007 1.37257e-005 -31.1724 62.8106 13.1173 6.87735e-006 -4.57413e-006 3 -8.03027 -4.95137 -0.697743 24.4686 68.319 157.491 -180 3.05156e-005 179.354 153.81 74.4519 -160.854 -7.89379e-007 1.71256e-006 1.50787 -27.5417 71.536 23.631 8.13649 25.2327 -3.48774 -38.6477 67.6672 -145.301 4.5067e-006 -1.99009e-005 -0.287 -34.8783 -77.1711 -25.2298 -3.03726e-006 -2.56543e-006 -0.1625 32.4972 75.7163 -30.6338 -8.1365 25.2326 3.48774 
52.8962 63.5158 4.679 8.26957 42.2646 -10.6481 -0.721004 0.99097 0.559865 -1.47186 5.9765 1.23434 -1.48983 7.6211 1.26107 -22.1125 -7.13839 -3.44676 18.665 13.1072 -6.86532 37.5954 -7.33715 -3.65768 129.774 29.9713 -74.0001 -1.2826e-005 5.61989e-006 -5.66249e-006 12.8529 50.6305 2.90414 -6.29621e-006 1.36918e-006 -2.99999 8.02941 -4.95143 0.697588 -58.0297 -8.98712 5.55759 -107.269 39.4199 68.0683 3.30716e-006 4.69622e-007 1.37257e-005 -31.4466 62.6255 13.2354 6.87735e-006 -4.57413e-006 3 -8.03027 -4.95137 -0.697743 24.6227 68.415 157.315 -180 3.05157e-005 179.356 153.861 74.3281 -160.928 -7.89379e-007 1.71256e-006 1.49987 -27.569 71.5587 23.6621 8.13649 25.2327 -3.48774 -38.8317 67.7593 -145.089 4.5067e-006 -1.99009e-005 -0.286477 -34.8107 -77.0351 -25.1434 -3.03726e-006 -2.56543e-006 -0.147024 32.5744 75.7368 -30.6893 -8.1365 25.2326 3.48774 
52.8987 63.6005 4.74353 8.28097 42.2981 -10.6614 -0.716916 0.992757 0.558938 -1.46487 5.98013 1.23297 -1.48282 7.62472 1.25959 -22.0915 -7.17262 -3.4504 18.6386 13.1087 -6.85882 37.5967 -7.32479 -3.64629 129.838 30.0736 -73.8906 -1.2826e-005 5.61989e-006 -5.66249e-006 13.1311 50.51 2.75077 -6.29621e-006 1.36918e-006 -2.99999 8.02941 -4.95143 0.697588 -58.073 -8.98827 5.55901 -107.348 39.4886 67.9212 3.30716e-006 4.69622e-007 1.37257e-005 -31.7239 62.4359 13.3537 6.87735e-006 -4.57413e-006 3 -8.03027 -4.95137 -0.697743 24.7798 68.5118 157.135 -180 3.05157e-005 179.359 153.912 74.2034 -161.003 -7.89379e-007 1.71256e-006 1.4918 -27.5956 71.5806 23.6921 8.13649 25.2327 -3.48774 -39.0181 67.8522 -144.874 4.5067e-006 -1.99009e-005 -0.285952 -34.7426 -76.8983 -25.0568 -3.03726e-006 -2.56543e-006 -0.131528 32.6502 75.7566 -30.7433 -8.1365 25.2326 3.48774 
52.9084 63.6732 4.79108 8.29201 42.3309 -10.6743 -0.712809 0.994426 0.557987 -1.45778 5.98352 1.23151 -1.4757 7.62812 1.258 -22.0708 -7.2076 -3.45396 18.6129 13.1107 -6.85222 37.5981 -7.31235 -3.63482 129.905 30.1778 -73.7743 -1.2826e-005 5.61989e-006 -5.66249e-006 13.413 50.382 2.5963 -6.29621e-006 1.36918e-006 -2.99999 8.02941 -4.95143 0.697588 -58.116 -8.98911 5.56023 -107.43 39.5578 67.7693 3.30716e-006 4.69622e-007 1.37257e-005 -32.0036 62.2419 13.4716 6.87735e-006 -4.57413e-006 3 -8.03027 -4.95137 -0.697743 24.9393 68.6093 156.953 -180 3.05157e-005 179.361 153.963 74.0778 -161.078 -7.89379e-007 1.71256e-006 1.48367 -27.6212 71.6019 23.7213 8.13649 25.2327 -3.48774 -39.2063 67.9457 -144.657 4.5067e-006 -1.99009e-005 -0.285426 -34.6744 -76.7608 -24.9702 -3.03726e-006 -2.56543e-006 -0.116007 32.7248 75.7757 -30.796 -8.1365 25.2326 3.48774 
52.9118 63.764 4.85719 8.3028 42.3633 -10.6869 -0.708715 0.995913 0.557008 -1.45062 5.98655 1.2299 -1.46852 7.63115 1.25628 -22.0509 -7.24359 -3.45739 18.5883 13.1134 -6.84555 37.5997 -7.29981 -3.62329 129.977 30.284 -73.6506 -1.2826e-005 5.61989e-006 -5.66249e-006 13.6986 50.2448 2.44096 -6.29621e-006 1.36918e-006 -2.99999 8.02941 -4.95143 0.697588 -58.1585 -8.98956 5.56119 -107.515 39.6274 67.6125 3.30716e-006 4.69622e-007 1.37257e-005 -32.285 62.0434 13.5885 6.87735e-006 -4.57413e-006 3 -8.03027 -4.95137 -0.697743 25.1004 68.7071 156.768 -180 3.05157e-005 179.363 154.014 73.9516 -161.153 -7.89379e-007 1.71256e-006 1.47548 -27.6455 71.6227 23.7499 8.13649 25.2327 -3.48774 -39.3956 68.0397 -144.438 4.5067e-006 -1.99009e-005 -0.284898 -34.6063 -76.6225 -24.8838 -3.03726e-006 -2.56543e-006 -0.100455 32.7982 75.7942 -30.8475 -8.1365 25.2326 3.48774 
